<svg xmlns="http://www.w3.org/2000/svg" xmlns:xlink="http://www.w3.org/1999/xlink" width="180" zoomAndPan="magnify" viewBox="0 0 135 30.000001" height="40" preserveAspectRatio="xMidYMid meet" version="1.0"><defs><g/><clipPath id="d3831e36f0"><path d="M 2.175781 0 L 132.820312 0 L 132.820312 29.03125 L 2.175781 29.03125 Z M 2.175781 0 " clip-rule="nonzero"/></clipPath><clipPath id="3050f8b139"><path d="M 2.175781 8 L 16 8 L 16 22 L 2.175781 22 Z M 2.175781 8 " clip-rule="nonzero"/></clipPath></defs><g clip-path="url(#d3831e36f0)"><path fill="#ffffff" d="M 2.175781 0 L 132.824219 0 L 132.824219 29.03125 L 2.175781 29.03125 Z M 2.175781 0 " fill-opacity="1" fill-rule="nonzero"/><path fill="#ffffff" d="M 2.175781 0 L 132.824219 0 L 132.824219 29.03125 L 2.175781 29.03125 Z M 2.175781 0 " fill-opacity="1" fill-rule="nonzero"/></g><g fill="#ff914d" fill-opacity="0.4"><g transform="translate(17.382747, 21.350095)"><g><path d="M 8.890625 -12.949219 L 8.890625 -6.996094 L 3.589844 -6.996094 L 3.589844 -12.949219 L 1.140625 -12.949219 L 1.140625 0.113281 L 3.589844 0.113281 L 3.589844 -4.566406 L 8.890625 -4.566406 L 8.890625 0.113281 L 11.320312 0.113281 L 11.320312 -12.949219 Z M 8.890625 -12.949219 "/></g></g></g><g fill="#877eff" fill-opacity="1"><g transform="translate(18.334515, 20.984745)"><g><path d="M 8.890625 -12.949219 L 8.890625 -6.996094 L 3.589844 -6.996094 L 3.589844 -12.949219 L 1.140625 -12.949219 L 1.140625 0.113281 L 3.589844 0.113281 L 3.589844 -4.566406 L 8.890625 -4.566406 L 8.890625 0.113281 L 11.320312 0.113281 L 11.320312 -12.949219 Z M 8.890625 -12.949219 "/></g></g></g><g clip-path="url(#3050f8b139)"><g fill="#ff914d" fill-opacity="0.4"><g transform="translate(1.118067, 21.350095)"><g><path d="M 14.402344 -7.617188 L 8.320312 -7.617188 L 8.320312 -5.121094 L 11.546875 -5.121094 C 11.042969 -3.507812 9.640625 -2.332031 7.8125 -2.332031 C 5.511719 -2.332031 3.882812 -4.207031 3.882812 -6.507812 C 3.882812 -8.808594 5.511719 -10.683594 7.8125 -10.683594 C 8.628906 -10.683594 9.363281 -10.457031 9.949219 -10.046875 L 11.777344 -11.875 C 10.667969 -12.691406 9.296875 -13.179688 7.8125 -13.179688 C 4.125 -13.179688 1.140625 -10.195312 1.140625 -6.507812 C 1.140625 -2.820312 4.125 0.164062 7.8125 0.164062 C 11.5 0.164062 14.484375 -2.820312 14.484375 -6.507812 C 14.484375 -6.882812 14.453125 -7.257812 14.402344 -7.617188 Z M 14.402344 -7.617188 "/></g></g></g></g><g fill="#877eff" fill-opacity="1"><g transform="translate(2.069836, 20.984745)"><g><path d="M 14.402344 -7.617188 L 8.320312 -7.617188 L 8.320312 -5.121094 L 11.546875 -5.121094 C 11.042969 -3.507812 9.640625 -2.332031 7.8125 -2.332031 C 5.511719 -2.332031 3.882812 -4.207031 3.882812 -6.507812 C 3.882812 -8.808594 5.511719 -10.683594 7.8125 -10.683594 C 8.628906 -10.683594 9.363281 -10.457031 9.949219 -10.046875 L 11.777344 -11.875 C 10.667969 -12.691406 9.296875 -13.179688 7.8125 -13.179688 C 4.125 -13.179688 1.140625 -10.195312 1.140625 -6.507812 C 1.140625 -2.820312 4.125 0.164062 7.8125 0.164062 C 11.5 0.164062 14.484375 -2.820312 14.484375 -6.507812 C 14.484375 -6.882812 14.453125 -7.257812 14.402344 -7.617188 Z M 14.402344 -7.617188 "/></g></g></g></svg>